# xmcd
#
# Track frame offsets:
#       150
#       11567
#       22397
#       34190
#       45495
#       57792
#       71697
#       85262
#       99405
#       112780
#       123370
#       135690
#       148100
#       160757
#       172975
#       186690
#       200047
#       212462
#       225535
#       238222
#
# Disc length: 3332 seconds
#
# Revision: 0
# Processed by: cddbd v1.4PL0 Copyright (c) Steve Scherf et al.
# Submitted via: CD-DA_X-Tractor v0.21
#
DISCID=1b0d0214
DTITLE=Lowell Fulson - Every Day I Have The Blues
DYEAR=1900
DGENRE=
TTITLE0=Every Day I Have The Blues
TTITLE1=Crying Blues (Street Walking Woman)
TTITLE2=Night Owl
TTITLE3=Lonesome Christmas
TTITLE4=Highway 99
TTITLE5=Hear Me Calling You (Angel Smile)
TTITLE6=Television Blues
TTITLE7=Television Blues
TTITLE8=Cold Hearted Mama (alternate)
TTITLE9=San Francisco Blues
TTITLE10=Fulson Boogie (Instrumental)
TTITLE11=I've Been Mistreated
TTITLE12=Let Me Ride In Your Automobile
TTITLE13=Rambling Blues
TTITLE14=I've Been Mistreated
TTITLE15=Cold Hearted Mama
TTITLE16=Don't Be So Evil
TTITLE17=Trouble Blues
TTITLE18=Let's Live Right
TTITLE19=Rock The House
EXTD=
EXTT0=
EXTT1=
EXTT2=
EXTT3=
EXTT4=
EXTT5=
EXTT6=
EXTT7=
EXTT8=
EXTT9=
EXTT10=
EXTT11=
EXTT12=
EXTT13=
EXTT14=
EXTT15=
EXTT16=
EXTT17=
EXTT18=
EXTT19=
PLAYORDER=
